<svg width="301" height="300" viewBox="0 0 301 300" fill="none" xmlns="http://www.w3.org/2000/svg">
<path d="M28.988 149.982L59.366 149.85L89.744 149.802L150.5 149.712L211.256 149.802L241.634 149.85L272.012 149.982L241.634 150.12L211.256 150.168L150.5 150.258L89.744 150.168L59.366 150.12L28.988 149.982Z" fill="#EBEBEB"/>
<path d="M28.988 130.95L59.366 130.818L89.744 130.77L150.5 130.68L211.256 130.77L241.634 130.818L272.012 130.95L241.634 131.088L211.256 131.136L150.5 131.226L89.744 131.136L59.366 131.088L28.988 130.95Z" fill="#EBEBEB"/>
<path d="M28.988 111.924L59.366 111.786L89.744 111.738L150.5 111.648L211.256 111.738L241.634 111.786L272.012 111.924L241.634 112.056L211.256 112.104L150.5 112.194L89.744 112.104L59.366 112.056L28.988 111.924Z" fill="#EBEBEB"/>
<path d="M28.988 92.892L59.366 92.754L89.744 92.706L150.5 92.616L211.256 92.706L241.634 92.754L272.012 92.892L241.634 93.024L211.256 93.072L150.5 93.168L89.744 93.072L59.366 93.024L28.988 92.892Z" fill="#EBEBEB"/>
<path d="M28.988 73.86L59.366 73.728L89.744 73.674L150.5 73.584L211.256 73.674L241.634 73.722L272.012 73.86L241.634 73.992L211.256 74.04L150.5 74.136L89.744 74.04L59.366 73.992L28.988 73.86Z" fill="#EBEBEB"/>
<path d="M28.988 54.828L59.366 54.696L89.744 54.648L150.5 54.552L211.256 54.642L241.634 54.696L272.012 54.828L241.634 54.96L211.256 55.014L150.5 55.104L89.744 55.008L59.366 54.96L28.988 54.828Z" fill="#EBEBEB"/>
<path d="M28.988 169.032L59.366 168.9L89.744 168.852L150.5 168.756L211.256 168.852L241.634 168.9L272.012 169.032L241.634 169.164L211.256 169.218L150.5 169.308L89.744 169.212L59.366 169.164L28.988 169.032Z" fill="#EBEBEB"/>
<path d="M28.988 188.082L59.366 187.95L89.744 187.896L150.5 187.806L211.256 187.896L241.634 187.944L272.012 188.082L241.634 188.214L211.256 188.262L150.5 188.358L89.744 188.262L59.366 188.214L28.988 188.082Z" fill="#EBEBEB"/>
<path d="M28.988 207.126L59.366 206.994L89.744 206.946L150.5 206.856L211.256 206.946L241.634 206.994L272.012 207.126L241.634 207.264L211.256 207.312L150.5 207.402L89.744 207.312L59.366 207.264L28.988 207.126Z" fill="#EBEBEB"/>
<path d="M28.988 226.176L59.366 226.044L89.744 225.996L150.5 225.9L211.256 225.996L241.634 226.044L272.012 226.176L241.634 226.314L211.256 226.362L150.5 226.452L89.744 226.362L59.366 226.314L28.988 226.176Z" fill="#EBEBEB"/>
<path d="M272.006 168.756H28.988V187.806H272.006V168.756Z" fill="#DBDBDB"/>
<path d="M171.248 34.002L171.398 56.07L171.452 72.636L171.548 177.912L171.452 211.038L171.398 227.604L171.248 244.164L171.104 227.604L171.05 211.038L170.948 177.912L171.05 72.636L171.104 56.07L171.248 34.002Z" fill="#EBEBEB"/>
<path d="M150.5 34.002L150.644 56.07L150.698 72.636L150.8 177.912L150.698 211.038L150.65 227.604L150.5 244.164L150.35 227.604L150.302 211.038L150.2 177.912L150.302 72.636L150.356 56.07L150.5 34.002Z" fill="#EBEBEB"/>
<path d="M129.752 34.002L129.896 56.07L129.95 72.636L130.046 177.912L129.95 211.038L129.896 227.604L129.752 244.164L129.602 227.604L129.548 211.038L129.452 177.912L129.548 72.636L129.602 56.07L129.752 34.002Z" fill="#EBEBEB"/>
<path d="M108.998 34.002L109.142 56.07L109.196 72.636L109.298 177.912L109.196 211.038L109.148 227.604L108.998 244.164L108.854 227.604L108.8 211.038L108.698 177.912L108.8 72.636L108.854 56.07L108.998 34.002Z" fill="#EBEBEB"/>
<path d="M233.504 34.002L233.648 56.07L233.702 72.636L233.804 177.912L233.702 211.038L233.648 227.604L233.504 244.164L233.354 227.604L233.3 211.038L233.204 177.912L233.306 72.636L233.354 56.07L233.504 34.002Z" fill="#EBEBEB"/>
<path d="M212.75 34.002L212.9 56.07L212.948 72.636L213.05 177.912L212.948 211.038L212.9 227.604L212.75 244.164L212.606 227.604L212.552 211.038L212.45 177.912L212.552 72.636L212.606 56.07L212.75 34.002Z" fill="#EBEBEB"/>
<path d="M192.002 34.002L192.146 56.07L192.2 72.636L192.302 177.912L192.2 211.038L192.146 227.604L192.002 244.164L191.852 227.604L191.804 211.038L191.702 177.912L191.804 72.636L191.858 56.07L192.002 34.002Z" fill="#EBEBEB"/>
<path d="M254.252 34.002L254.396 56.07L254.45 72.636L254.552 177.912L254.45 211.038L254.402 227.604L254.252 244.164L254.108 227.604L254.054 211.038L253.952 177.912L254.054 72.636L254.108 56.07L254.252 34.002Z" fill="#EBEBEB"/>
<path d="M233.504 34.002L233.648 56.07L233.702 72.636L233.804 177.912L233.702 211.038L233.648 227.604L233.504 244.164L233.354 227.604L233.3 211.038L233.204 177.912L233.306 72.636L233.354 56.07L233.504 34.002Z" fill="#EBEBEB"/>
<path d="M88.2501 34.002L88.3941 56.07L88.4481 72.636L88.5501 177.912L88.4481 211.038L88.3941 227.604L88.2501 244.164L88.1001 227.604L88.0461 211.038L87.9501 177.912L88.0521 72.636L88.1001 56.07L88.2501 34.002Z" fill="#EBEBEB"/>
<path d="M67.496 34.002L67.646 56.07L67.694 72.636L67.796 177.912L67.7 211.038L67.646 227.604L67.496 244.164L67.352 227.604L67.298 211.038L67.196 177.912L67.298 72.636L67.352 56.07L67.496 34.002Z" fill="#EBEBEB"/>
<path d="M46.748 34.002L46.892 56.07L46.946 72.636L47.048 177.912L46.946 211.038L46.892 227.604L46.748 244.164L46.598 227.604L46.55 211.038L46.448 177.912L46.55 72.636L46.598 56.07L46.748 34.002Z" fill="#EBEBEB"/>
<path d="M32.132 110.232H129.74L132.878 37.026H28.988L32.132 110.232Z" fill="#EBEBEB"/>
<path d="M78.86 103.506H39.386L36.812 44.106H78.86V103.506ZM39.962 102.906H78.26V44.706H37.46L39.962 102.906Z" fill="#DBDBDB"/>
<path d="M75.296 83.844H71.198V62.4H75.296V83.844ZM71.798 83.244H74.696V63H71.798V83.244Z" fill="#DBDBDB"/>
<path d="M122.48 103.506H83.006V44.106H125.054L122.48 103.506ZM83.606 102.906H121.904L124.424 44.706H83.624L83.606 102.906Z" fill="#DBDBDB"/>
<path d="M90.6681 83.844H86.5701V62.4H90.6681V83.844ZM87.1701 83.244H90.0681V63H87.1701V83.244Z" fill="#DBDBDB"/>
<path d="M150.5 268.344C216.668 268.344 270.308 264.785 270.308 260.394C270.308 256.003 216.668 252.444 150.5 252.444C84.3319 252.444 30.692 256.003 30.692 260.394C30.692 264.785 84.3319 268.344 150.5 268.344Z" fill="#EBEBEB"/>
<path d="M150.068 242.736L149.018 242.166L152.204 236.298H201.584L204.776 242.166L203.72 242.736L200.87 237.498H152.918L150.068 242.736Z" fill="#263238"/>
<path d="M158.774 242.664L157.646 242.244L159.854 236.298H193.934L196.142 242.244L195.02 242.664L193.1 237.498H160.688L158.774 242.664Z" fill="#263238"/>
<path d="M261.608 242.736L258.758 237.498H210.806L207.956 242.736L206.906 242.166L210.092 236.298H259.472L262.664 242.166L261.608 242.736Z" fill="#263238"/>
<path d="M252.908 242.664L250.988 237.498H218.576L216.662 242.664L215.534 242.244L217.742 236.298H251.822L254.03 242.244L252.908 242.664Z" fill="#263238"/>
<path d="M265.382 241.164H146.6V244.26H265.382V241.164Z" fill="#455A64"/>
<path d="M27.026 244.164L57.896 244.02L88.76 243.966L150.5 243.864L212.234 243.966L243.104 244.02L273.974 244.164L243.104 244.314L212.234 244.362L150.5 244.464L88.76 244.362L57.896 244.308L27.026 244.164Z" fill="#263238"/>
<path d="M255.608 73.92H159.608V81.306H255.608V73.92Z" fill="#6FA1D4"/>
<path d="M209.03 94.662H206.18V130.686H209.03V94.662Z" fill="#C7C7C7"/>
<path d="M215.3 129.114H199.892L199.1 150.648H216.11L215.3 129.114ZM204.35 148.122H202.748V132.192H204.35V148.122ZM208.382 148.122H206.786V132.192H208.382V148.122ZM212.414 148.122H210.818V132.192H212.414V148.122Z" fill="#C7C7C7"/>
<path d="M210.686 98.208H204.704L204.104 75.894H211.286L210.686 98.208Z" fill="#263238"/>
<path d="M207.698 79.776C208.235 79.776 208.67 79.3408 208.67 78.804C208.67 78.2672 208.235 77.832 207.698 77.832C207.161 77.832 206.726 78.2672 206.726 78.804C206.726 79.3408 207.161 79.776 207.698 79.776Z" fill="#6FA1D4"/>
<path d="M239.192 94.662H236.342V123.654H239.192V94.662Z" fill="#C7C7C7"/>
<path d="M245.93 132.036C245.93 138.084 241.988 143.646 237.77 143.646C233.552 143.646 229.604 138.084 229.604 132.036C229.604 125.988 234.434 123 237.77 123C241.106 123 245.93 126 245.93 132.036Z" fill="#C7C7C7"/>
<path d="M240.848 98.208H234.866L234.266 75.894H241.448L240.848 98.208Z" fill="#263238"/>
<path d="M237.86 79.776C238.397 79.776 238.832 79.3408 238.832 78.804C238.832 78.2672 238.397 77.832 237.86 77.832C237.323 77.832 236.888 78.2672 236.888 78.804C236.888 79.3408 237.323 79.776 237.86 79.776Z" fill="#6FA1D4"/>
<path d="M159.554 107.028V142.428H181.202V94.572H176.714V107.028H159.554ZM162.614 111.948C162.613 111.693 162.687 111.443 162.828 111.23C162.969 111.017 163.171 110.851 163.406 110.752C163.642 110.653 163.901 110.627 164.152 110.676C164.403 110.725 164.633 110.848 164.814 111.028C164.995 111.208 165.118 111.438 165.169 111.688C165.219 111.939 165.194 112.198 165.096 112.434C164.999 112.67 164.834 112.872 164.621 113.014C164.409 113.156 164.159 113.232 163.904 113.232C163.563 113.232 163.236 113.097 162.994 112.856C162.752 112.616 162.616 112.289 162.614 111.948Z" fill="#C7C7C7"/>
<path d="M175.97 98.208H181.952L182.552 75.894H175.37L175.97 98.208Z" fill="#263238"/>
<path d="M178.964 79.776C179.501 79.776 179.936 79.3408 179.936 78.804C179.936 78.2672 179.501 77.832 178.964 77.832C178.427 77.832 177.992 78.2672 177.992 78.804C177.992 79.3408 178.427 79.776 178.964 79.776Z" fill="#6FA1D4"/>
<path d="M190.496 44.106V73.92H237.104V44.106H190.496Z" fill="#6FA1D4"/>
<path opacity="0.2" d="M190.496 44.106V73.92H237.104V44.106H190.496Z" fill="black"/>
<path d="M249.458 55.032C247.136 55.032 244.988 57.018 242.816 57.018H237.104V61.008H242.816C244.988 61.008 247.136 63.006 249.458 63.006C252.206 63.006 254.258 61.47 254.258 59.016C254.258 56.562 252.206 55.032 249.458 55.032ZM250.088 60.51C249.791 60.5112 249.5 60.4241 249.252 60.2597C249.005 60.0954 248.812 59.8612 248.697 59.5868C248.583 59.3125 248.553 59.0104 248.611 58.7189C248.668 58.4274 248.811 58.1595 249.021 57.9494C249.231 57.7393 249.499 57.5963 249.791 57.5386C250.082 57.4809 250.384 57.5111 250.659 57.6254C250.933 57.7397 251.167 57.9328 251.332 58.1804C251.496 58.428 251.583 58.7189 251.582 59.016C251.579 59.4093 251.422 59.7857 251.145 60.0648C250.868 60.344 250.493 60.5038 250.1 60.51H250.088Z" fill="#6FA1D4"/>
<g opacity="0.2">
<path d="M249.458 55.032C247.136 55.032 244.988 57.018 242.816 57.018H237.104V61.008H242.816C244.988 61.008 247.136 63.006 249.458 63.006C252.206 63.006 254.258 61.47 254.258 59.016C254.258 56.562 252.206 55.032 249.458 55.032ZM250.088 60.51C249.791 60.5112 249.5 60.4241 249.252 60.2597C249.005 60.0954 248.812 59.8612 248.697 59.5868C248.583 59.3125 248.553 59.0104 248.611 58.7189C248.668 58.4274 248.811 58.1595 249.021 57.9494C249.231 57.7393 249.499 57.5963 249.791 57.5386C250.082 57.4809 250.384 57.5111 250.659 57.6254C250.933 57.7397 251.167 57.9328 251.332 58.1804C251.496 58.428 251.583 58.7189 251.582 59.016C251.579 59.4093 251.422 59.7857 251.145 60.0648C250.868 60.344 250.493 60.5038 250.1 60.51H250.088Z" fill="black"/>
</g>
<path d="M203.066 59.448C203.066 59.448 196.928 70.926 195.734 72.486C194.54 74.046 191.642 73.92 189.848 73.92H175.184C173.384 73.92 170.492 74.052 169.298 72.486C168.104 70.92 161.966 59.448 161.966 59.448H203.066Z" fill="#455A64"/>
<path d="M87.8179 121.584C83.6179 117.552 69.4939 117.84 63.4399 124.584C55.0939 133.854 66.0739 152.124 79.3399 147.564C92.6059 143.004 91.0399 124.692 87.8179 121.584Z" fill="#263238"/>
<path d="M64.316 142.662C61.958 139.248 60.194 135.384 59.774 131.454C59.5155 129.554 59.8493 127.621 60.7297 125.918C61.6102 124.215 62.9946 122.825 64.694 121.938C66.4233 120.958 68.2756 120.214 70.202 119.724C72.1244 119.174 74.1031 118.844 76.1 118.74C80.194 118.504 84.2655 119.494 87.794 121.584C84.71 118.728 80.384 117.234 76.094 117.156C73.9378 117.111 71.7852 117.351 69.692 117.87C67.5738 118.361 65.5356 119.149 63.638 120.21C61.653 121.334 60.0454 123.021 59.018 125.058C58.0676 127.12 57.7824 129.427 58.202 131.658C58.988 135.99 61.37 139.728 64.316 142.662Z" fill="#263238"/>
<path d="M104.24 148.998C114.398 161.196 122.804 176.748 127.31 180.516C129.662 182.484 163.91 185.514 167.792 186.282C173.714 187.446 165.338 217.782 161.348 216.66C158.744 215.934 119.396 210.492 112.148 202.296C106.58 195.99 97.784 168.81 95.444 156.87C92.852 143.592 100.19 144.132 104.24 148.998Z" fill="#FFC4C0"/>
<path d="M176.018 218.106C169.226 218.031 162.47 217.122 155.9 215.4C152.3 214.374 154.1 186.108 157.796 185.052C169.196 181.77 184.862 184.11 190.094 188.292C195.326 192.474 182.816 218.1 176.018 218.106Z" fill="#FFC4C0"/>
<path d="M260.426 169.344C254.042 173.142 246.098 174.822 239.006 176.826C235.118 177.918 231.212 178.942 227.288 179.898C225.488 180.342 223.688 180.756 221.888 181.164C220.796 181.416 219.092 182.118 217.94 181.8C217.809 181.769 217.691 181.699 217.601 181.6C217.511 181.5 217.453 181.375 217.436 181.242C217.43 181.166 217.43 181.09 217.436 181.014C217.394 180.348 236.036 174.888 241.436 168.054C244.166 164.58 246.56 158.862 243.932 154.674C242.36 152.178 239.18 151.788 236.546 152.526C233.798 153.3 230.894 156.45 233.486 157.722C233.738 157.266 234.584 157.458 234.41 158.028C233.882 159.384 230.966 160.2 229.43 158.406C226.964 155.544 228.728 150.966 230.696 148.746C236.198 142.506 249.572 142.602 254.036 150.858C256.64 148.914 260.084 149.748 261.356 152.736C263.804 150.486 267.356 153.048 267.956 156.174C269.06 161.694 264.866 166.716 260.426 169.344Z" fill="#6FA1D4"/>
<path d="M227.534 148.92C226.934 148.212 221.486 149.484 222.788 152.046C224.09 154.608 228.44 149.946 227.534 148.92Z" fill="#6FA1D4"/>
<path d="M224.504 155.712C223.778 155.454 221.324 158.634 222.986 159.57C224.648 160.506 225.11 155.928 224.504 155.712Z" fill="#6FA1D4"/>
<path d="M254.708 148.8C255.41 148.488 254.996 144.486 253.148 144.954C251.3 145.422 254.114 149.046 254.708 148.8Z" fill="#6FA1D4"/>
<path d="M222.758 154.2C222.476 153.828 221.054 154.296 221.594 155.106C222.134 155.916 223.1 154.656 222.758 154.2Z" fill="#6FA1D4"/>
<path d="M254.024 143.496C254.474 143.382 254.624 141.894 253.646 142.074C252.668 142.254 253.502 143.628 254.024 143.496Z" fill="#6FA1D4"/>
<path d="M205.286 187.512L152.972 204.696L151.07 198.018L203.93 182.73L205.286 187.512Z" fill="#A6A6A6"/>
<path d="M266.066 165.048C266.066 165.048 267.446 179.094 262.55 180.492L236.402 187.932L210.254 195.372C205.358 196.764 199.136 184.098 199.136 184.098L266.066 165.048Z" fill="#455A64"/>
<path d="M160.91 184.362C160.91 184.362 188.9 173.028 188.3 185.124C188.12 188.724 183.092 203.268 180.152 202.314C176.354 201.084 177.32 194.622 178.568 190.656C178.568 190.656 170.396 195.618 165.242 190.956C163.273 189.151 161.785 186.885 160.91 184.362Z" fill="#FFC4C0"/>
<path d="M188.3 184.116C188.397 185.535 188.286 186.96 187.97 188.346C187.688 189.739 187.315 191.112 186.854 192.456C185.965 195.165 184.84 197.791 183.494 200.304C183.132 200.964 182.68 201.57 182.15 202.104C181.838 202.418 181.458 202.656 181.04 202.8C180.816 202.885 180.578 202.93 180.338 202.932C180.101 202.933 179.866 202.895 179.642 202.818C178.835 202.541 178.152 201.986 177.716 201.252C177.333 200.572 177.069 199.831 176.936 199.062C176.718 197.601 176.75 196.114 177.032 194.664C177.278 193.24 177.631 191.836 178.088 190.464L178.82 191.028C177.864 191.56 176.859 192 175.82 192.342C174.793 192.689 173.734 192.932 172.658 193.068C171.583 193.19 170.495 193.156 169.43 192.966C168.365 192.777 167.347 192.386 166.43 191.814C167.378 192.248 168.392 192.522 169.43 192.624C170.463 192.707 171.503 192.649 172.52 192.45C173.547 192.266 174.552 191.977 175.52 191.586C176.473 191.208 177.389 190.742 178.256 190.194L179.318 189.51L178.988 190.758C178.603 192.085 178.308 193.436 178.106 194.802C177.873 196.131 177.859 197.489 178.064 198.822C178.286 200.07 178.916 201.342 179.954 201.666C180.842 202.032 181.796 200.814 182.474 199.68C183.178 198.484 183.819 197.253 184.394 195.99C184.994 194.724 185.594 193.452 186.098 192.15C187.1 189.6 188.138 186.936 188.3 184.116Z" fill="#263238"/>
<path d="M180.752 183.498C177.782 185.298 181.604 187.77 181.604 187.77C181.604 187.77 175.244 185.538 172.898 188.58C170.642 191.52 175.37 194.346 175.706 194.55C175.364 194.436 169.466 192.54 167.426 195.84C165.302 199.272 170.534 201.288 170.876 201.42C170.522 201.42 165.854 201.378 164.876 204.24C163.19 209.154 175.124 209.568 177.866 212.766C177.866 212.766 175.64 217.944 175.532 218.124C175.532 218.124 184.22 218.832 188.318 214.902C188.929 214.342 189.328 213.589 189.449 212.769C189.569 211.95 189.403 211.113 188.978 210.402C188.978 210.402 192.614 211.002 194.3 208.458C195.164 207.15 193.838 204.6 193.838 204.6C193.838 204.6 196.772 204.966 198.134 202.608C199.226 200.724 197.726 198.462 197.726 198.462C197.726 198.462 200.726 197.508 201.194 195.222C202.19 190.62 187.1 179.646 180.752 183.498Z" fill="#FFC4C0"/>
<path d="M197.534 198.066C197.543 198.075 197.555 198.081 197.568 198.082C197.581 198.082 197.593 198.078 197.603 198.069C197.612 198.06 197.618 198.048 197.619 198.035C197.619 198.022 197.615 198.01 197.606 198C193.532 193.2 187.58 189.138 181.406 187.614C181.202 187.566 181.034 187.872 181.25 187.968C187.31 190.752 192.458 193.704 197.534 198.066Z" fill="#263238"/>
<path d="M193.928 204.6C193.988 204.648 194.066 204.558 194.012 204.498C189.812 199.554 182.954 195.186 175.64 194.268C175.394 194.238 175.136 194.46 175.424 194.514C180.236 195.516 189.38 200.676 193.928 204.6Z" fill="#263238"/>
<path d="M170.342 201.534C177.32 202.68 183.224 205.95 188.81 210.186C188.882 210.24 188.954 210.132 188.906 210.066C186.734 207.252 182.906 204.93 179.756 203.37C176.868 201.868 173.636 201.15 170.384 201.288C170.252 201.294 170.192 201.504 170.342 201.534Z" fill="#263238"/>
<path d="M181.604 187.8C180.345 187.484 179.059 187.283 177.764 187.2C176.51 187.069 175.244 187.276 174.098 187.8C173.584 188.065 173.189 188.512 172.988 189.054C172.791 189.605 172.737 190.198 172.832 190.776C172.977 191.34 173.239 191.868 173.6 192.325C173.962 192.782 174.416 193.157 174.932 193.428L177.398 194.862L174.584 194.376C173.336 194.147 172.059 194.125 170.804 194.31C170.22 194.365 169.654 194.542 169.142 194.829C168.631 195.117 168.185 195.508 167.834 195.978C167.515 196.421 167.356 196.96 167.385 197.505C167.413 198.051 167.626 198.57 167.99 198.978C168.827 199.871 169.878 200.536 171.044 200.91L174.218 202.05L170.858 202.014C169.922 202 168.988 202.107 168.08 202.332C167.211 202.513 166.414 202.945 165.788 203.574C165.52 203.871 165.34 204.236 165.268 204.629C165.196 205.022 165.235 205.428 165.38 205.8C165.838 206.569 166.503 207.193 167.3 207.6C169.015 208.542 170.802 209.345 172.646 210C173.564 210.366 174.488 210.732 175.388 211.14C176.323 211.498 177.17 212.052 177.872 212.766C177.108 212.145 176.229 211.68 175.286 211.398C174.362 211.062 173.42 210.768 172.478 210.474C170.552 209.932 168.682 209.208 166.892 208.314C165.912 207.849 165.09 207.106 164.528 206.178C164.278 205.64 164.191 205.041 164.276 204.454C164.361 203.866 164.615 203.317 165.008 202.872C165.761 202.068 166.736 201.506 167.81 201.258C168.818 200.992 169.857 200.857 170.9 200.856L170.714 201.96C169.339 201.536 168.098 200.76 167.114 199.71C166.581 199.111 166.271 198.345 166.238 197.544C166.237 196.757 166.471 195.989 166.91 195.336C167.352 194.737 167.915 194.238 168.564 193.873C169.212 193.508 169.931 193.285 170.672 193.218C172.056 193.035 173.461 193.082 174.83 193.356L174.482 194.298C173.856 193.938 173.317 193.445 172.902 192.854C172.488 192.263 172.208 191.589 172.082 190.878C171.994 190.16 172.095 189.432 172.376 188.766C172.667 188.086 173.196 187.536 173.864 187.218C175.13 186.721 176.51 186.588 177.848 186.834C179.132 187.013 180.392 187.337 181.604 187.8Z" fill="#263238"/>
<path d="M154.856 182.514L149.96 215.568C149.96 215.568 114.806 209.568 109.064 202.968C103.322 196.368 97.478 170.136 94.664 156.918C91.85 143.7 99.188 139.56 107.3 150.546C115.412 161.532 124.646 178.272 126.794 179.256C128.942 180.24 154.856 182.514 154.856 182.514Z" fill="#6FA1D4"/>
<path opacity="0.1" d="M140.732 213.792C129.896 211.53 112.904 207.39 109.064 202.992C103.316 196.392 97.4839 170.16 94.6639 156.948C93.2359 150.21 94.4419 145.83 97.0639 144.618C103.154 154.044 128.066 192.642 140.732 213.792Z" fill="black"/>
<path d="M158.978 182.208C158.894 182.028 148.916 180.294 148.916 180.294C148.916 180.294 139.916 196.2 139.916 198.108C139.916 200.016 139.718 214.506 139.868 214.686C140.018 214.866 152.006 218.01 152.252 217.686C152.498 217.362 153.308 201.738 153.35 200.544C153.392 199.35 158.978 182.208 158.978 182.208Z" fill="#6FA1D4"/>
<path opacity="0.2" d="M158.978 182.208C158.894 182.028 148.916 180.294 148.916 180.294C148.916 180.294 139.916 196.2 139.916 198.108C139.916 200.016 139.718 214.506 139.868 214.686C140.018 214.866 152.006 218.01 152.252 217.686C152.498 217.362 153.308 201.738 153.35 200.544C153.392 199.35 158.978 182.208 158.978 182.208Z" fill="black"/>
<path d="M121.49 244.26L114.29 204.906C114.29 204.906 121.49 198.306 120.746 186.522C120.35 180.174 108.842 157.452 102.674 149.496C96.8839 142.038 84.3739 142.44 76.6579 151.8C51.7399 182.028 44.0419 222.144 40.8379 244.26H121.49Z" fill="#6FA1D4"/>
<path d="M84.8419 151.164C86.8669 153.52 89.3074 155.485 92.0419 156.96C94.7376 158.465 97.7381 159.343 100.82 159.528C102.353 159.595 103.889 159.486 105.398 159.204L106.52 158.958H106.64C106.693 158.961 106.745 158.978 106.79 159.006C106.819 159.024 106.845 159.046 106.868 159.072L106.904 159.12C106.939 159.166 106.971 159.214 107 159.264L107.15 159.528C107.246 159.708 107.33 159.882 107.414 160.062C107.744 160.776 108.044 161.496 108.332 162.216C109.468 165.115 110.447 168.074 111.266 171.078C112.099 174.079 112.756 177.126 113.234 180.204C113.716 183.287 113.917 186.408 113.834 189.528C113.786 192.668 113.225 195.779 112.172 198.738C111.109 201.72 109.21 204.332 106.7 206.262L106.808 206.022L108.956 225.09L111.02 244.17L108.62 225.132L106.298 206.082V205.932L106.418 205.842C108.85 203.965 110.688 201.425 111.71 198.528C112.734 195.626 113.276 192.575 113.312 189.498C113.45 183.33 112.376 177.174 110.774 171.21C109.967 168.225 109.002 165.284 107.882 162.402C107.6 161.682 107.282 160.968 106.982 160.272C106.898 160.098 106.82 159.924 106.73 159.756C106.688 159.678 106.646 159.594 106.598 159.516C106.55 159.438 106.55 159.444 106.538 159.42C106.574 159.441 106.616 159.454 106.658 159.456L105.506 159.702C103.958 159.976 102.383 160.064 100.814 159.966C97.6675 159.739 94.6151 158.792 91.8919 157.2C89.1915 155.638 86.8016 153.592 84.8419 151.164Z" fill="#263238"/>
<path d="M92.3 175.392C92.3 175.748 92.1944 176.096 91.9966 176.392C91.7988 176.688 91.5177 176.919 91.1888 177.055C90.8599 177.191 90.498 177.227 90.1488 177.157C89.7996 177.088 89.4789 176.916 89.2272 176.665C88.9754 176.413 88.804 176.092 88.7345 175.743C88.6651 175.394 88.7007 175.032 88.837 174.703C88.9732 174.374 89.2039 174.093 89.4999 173.895C89.7959 173.698 90.1439 173.592 90.5 173.592C90.9773 173.592 91.4352 173.782 91.7727 174.119C92.1103 174.457 92.3 174.915 92.3 175.392Z" fill="#263238"/>
<path d="M109.274 176.328C109.274 176.684 109.168 177.032 108.971 177.328C108.773 177.624 108.492 177.855 108.163 177.991C107.834 178.127 107.472 178.163 107.123 178.093C106.774 178.024 106.453 177.852 106.201 177.601C105.949 177.349 105.778 177.028 105.709 176.679C105.639 176.33 105.675 175.968 105.811 175.639C105.947 175.31 106.178 175.029 106.474 174.831C106.77 174.634 107.118 174.528 107.474 174.528C107.951 174.528 108.409 174.718 108.747 175.055C109.084 175.393 109.274 175.851 109.274 176.328Z" fill="#263238"/>
<path d="M89.8999 188.844C89.8999 189.2 89.7944 189.548 89.5966 189.844C89.3988 190.14 89.1177 190.371 88.7888 190.507C88.4599 190.643 88.0979 190.679 87.7488 190.609C87.3996 190.54 87.0789 190.368 86.8271 190.117C86.5754 189.865 86.404 189.544 86.3345 189.195C86.2651 188.846 86.3007 188.484 86.4369 188.155C86.5732 187.826 86.8039 187.545 87.0999 187.347C87.3959 187.15 87.7439 187.044 88.0999 187.044C88.5773 187.044 89.0352 187.234 89.3727 187.571C89.7103 187.909 89.8999 188.367 89.8999 188.844Z" fill="#263238"/>
<path d="M84.2539 204.906C84.2539 205.262 84.1484 205.61 83.9506 205.906C83.7528 206.202 83.4717 206.433 83.1428 206.569C82.8139 206.705 82.4519 206.741 82.1028 206.671C81.7536 206.602 81.4329 206.43 81.1811 206.179C80.9294 205.927 80.758 205.606 80.6885 205.257C80.6191 204.908 80.6547 204.546 80.7909 204.217C80.9272 203.888 81.1579 203.607 81.4539 203.409C81.7499 203.212 82.0979 203.106 82.4539 203.106C82.9313 203.106 83.3892 203.296 83.7267 203.633C84.0643 203.971 84.2539 204.429 84.2539 204.906Z" fill="#263238"/>
<path d="M83.6779 220.722C83.6779 221.078 83.5723 221.426 83.3745 221.722C83.1767 222.018 82.8956 222.249 82.5667 222.385C82.2378 222.521 81.8759 222.557 81.5267 222.487C81.1776 222.418 80.8568 222.247 80.6051 221.995C80.3534 221.743 80.1819 221.422 80.1125 221.073C80.043 220.724 80.0787 220.362 80.2149 220.033C80.3511 219.704 80.5818 219.423 80.8779 219.225C81.1739 219.028 81.5219 218.922 81.8779 218.922C82.3553 218.922 82.8131 219.112 83.1507 219.449C83.4882 219.787 83.6779 220.245 83.6779 220.722Z" fill="#263238"/>
<path d="M108.224 190.2C108.224 190.556 108.118 190.904 107.921 191.2C107.723 191.496 107.442 191.727 107.113 191.863C106.784 191.999 106.422 192.035 106.073 191.965C105.724 191.896 105.403 191.724 105.151 191.473C104.899 191.221 104.728 190.9 104.658 190.551C104.589 190.202 104.625 189.84 104.761 189.511C104.897 189.182 105.128 188.901 105.424 188.703C105.72 188.506 106.068 188.4 106.424 188.4C106.901 188.4 107.359 188.59 107.697 188.927C108.034 189.265 108.224 189.723 108.224 190.2Z" fill="#263238"/>
<path d="M102.464 220.386C102.464 220.742 102.358 221.09 102.161 221.386C101.963 221.682 101.682 221.913 101.353 222.049C101.024 222.185 100.662 222.221 100.313 222.151C99.9636 222.082 99.6428 221.91 99.3911 221.659C99.1394 221.407 98.9679 221.086 98.8985 220.737C98.829 220.388 98.8647 220.026 99.0009 219.697C99.1371 219.368 99.3679 219.087 99.6639 218.889C99.9599 218.692 100.308 218.586 100.664 218.586C101.141 218.586 101.599 218.776 101.937 219.113C102.274 219.451 102.464 219.909 102.464 220.386Z" fill="#263238"/>
<path d="M82.856 238.206C83.8401 238.206 84.638 237.408 84.638 236.424C84.638 235.44 83.8401 234.642 82.856 234.642C81.8718 234.642 81.074 235.44 81.074 236.424C81.074 237.408 81.8718 238.206 82.856 238.206Z" fill="#263238"/>
<path d="M103.424 236.088C103.424 236.444 103.318 236.792 103.121 237.088C102.923 237.384 102.642 237.615 102.313 237.751C101.984 237.887 101.622 237.923 101.273 237.853C100.924 237.784 100.603 237.612 100.351 237.361C100.099 237.109 99.928 236.788 99.8586 236.439C99.7891 236.09 99.8248 235.728 99.961 235.399C100.097 235.07 100.328 234.789 100.624 234.591C100.92 234.394 101.268 234.288 101.624 234.288C102.101 234.288 102.559 234.478 102.897 234.815C103.234 235.153 103.424 235.611 103.424 236.088Z" fill="#263238"/>
<path d="M102.884 205.512C102.884 205.868 102.778 206.216 102.581 206.512C102.383 206.808 102.102 207.039 101.773 207.175C101.444 207.311 101.082 207.347 100.733 207.277C100.384 207.208 100.063 207.037 99.8111 206.785C99.5594 206.533 99.388 206.212 99.3185 205.863C99.2491 205.514 99.2847 205.152 99.421 204.823C99.5572 204.494 99.7879 204.213 100.084 204.015C100.38 203.818 100.728 203.712 101.084 203.712C101.561 203.712 102.019 203.902 102.357 204.239C102.694 204.577 102.884 205.035 102.884 205.512Z" fill="#263238"/>
<path d="M103.868 144.192C103.868 144.192 106.268 155.112 104.27 155.628C98.198 157.23 89.93 149.886 89.33 148.608C89.18 148.278 88.256 139.65 87.53 132.936C87.074 128.622 86.72 125.1 86.72 125.1L103.97 131.508L103.856 143.346L103.868 144.192Z" fill="#FFC4C0"/>
<path d="M103.994 131.508L103.88 143.346C100.58 142.855 97.4207 141.674 94.6078 139.88C91.7948 138.087 89.3913 135.721 87.5539 132.936C87.0979 128.622 86.7439 125.1 86.7439 125.1L88.9039 125.82L103.994 131.508Z" fill="#263238"/>
<path d="M118.064 113.886C120.464 134.532 108.368 138.294 103.916 138.804C99.872 139.272 86.054 140.34 81.536 120.054C77.018 99.768 85.862 92.124 95.054 90.576C104.246 89.028 115.7 93.24 118.064 113.886Z" fill="#FFC4C0"/>
<path d="M114.332 112.284C113.856 112.23 113.384 112.152 112.916 112.05C112.407 112.037 111.916 111.858 111.518 111.54C111.413 111.414 111.352 111.258 111.344 111.094C111.337 110.93 111.383 110.769 111.476 110.634C111.704 110.397 111.991 110.225 112.307 110.135C112.623 110.046 112.958 110.042 113.276 110.124C113.941 110.192 114.556 110.504 115.004 111C115.103 111.119 115.164 111.265 115.18 111.419C115.196 111.573 115.166 111.728 115.094 111.865C115.023 112.002 114.912 112.115 114.776 112.19C114.641 112.264 114.486 112.297 114.332 112.284Z" fill="#263238"/>
<path d="M100.166 113.196C100.629 113.078 101.086 112.936 101.534 112.77C102.039 112.687 102.503 112.44 102.854 112.068C102.94 111.929 102.978 111.765 102.961 111.603C102.945 111.44 102.876 111.287 102.764 111.168C102.508 110.966 102.203 110.836 101.881 110.791C101.558 110.746 101.229 110.787 100.928 110.91C100.278 111.067 99.7088 111.461 99.332 112.014C99.2537 112.145 99.2152 112.297 99.2212 112.45C99.2271 112.603 99.2772 112.751 99.3654 112.876C99.4537 113.001 99.5762 113.097 99.7183 113.154C99.8603 113.211 100.016 113.226 100.166 113.196Z" fill="#263238"/>
<path d="M103.532 117.078C103.532 117.024 103.424 117.15 103.43 117.21C103.574 118.614 103.496 120.252 102.23 120.81C102.188 120.81 102.2 120.9 102.23 120.888C103.814 120.564 103.892 118.386 103.532 117.078Z" fill="#263238"/>
<path d="M102.17 115.686C99.8839 115.686 100.022 120.24 102.134 120.252C104.246 120.264 104.078 115.704 102.17 115.686Z" fill="#263238"/>
<path d="M101.3 115.956C100.91 116.226 100.532 116.694 100.058 116.754C99.5839 116.814 99.0679 116.364 98.6899 115.914C98.6479 115.866 98.6119 115.914 98.6119 115.968C98.6119 116.844 98.9899 117.732 99.9319 117.834C100.874 117.936 101.378 117.132 101.57 116.25C101.582 116.082 101.438 115.848 101.3 115.956Z" fill="#263238"/>
<path d="M111.392 116.484C111.392 116.43 111.506 116.55 111.506 116.61C111.506 118.026 111.71 119.646 113 120.09C113.042 120.09 113.042 120.174 113 120.168C111.428 120 111.152 117.822 111.392 116.484Z" fill="#263238"/>
<path d="M112.622 114.978C114.896 114.756 115.172 119.316 113.066 119.52C110.96 119.724 110.72 115.164 112.622 114.978Z" fill="#263238"/>
<path d="M113.594 115.2C113.966 115.416 114.35 115.836 114.794 115.836C115.238 115.836 115.634 115.32 115.922 114.828C115.952 114.78 115.994 114.828 115.994 114.876C116.072 115.746 115.844 116.676 115.016 116.892C114.188 117.108 113.654 116.376 113.39 115.518C113.33 115.386 113.438 115.134 113.594 115.2Z" fill="#263238"/>
<path d="M103.568 128.226C103.904 128.562 104.234 129.024 104.768 129.072C105.293 129.07 105.813 128.958 106.292 128.742C106.302 128.737 106.313 128.735 106.323 128.738C106.334 128.74 106.344 128.746 106.351 128.754C106.358 128.762 106.362 128.773 106.362 128.784C106.362 128.795 106.359 128.805 106.352 128.814C106.147 129.088 105.871 129.302 105.554 129.431C105.237 129.561 104.891 129.603 104.552 129.552C104.264 129.474 104.007 129.312 103.812 129.086C103.618 128.86 103.495 128.582 103.46 128.286C103.412 128.202 103.52 128.178 103.568 128.226Z" fill="#263238"/>
<path d="M109.268 122.868C109.268 122.868 109.646 124.968 109.688 125.964C109.688 126.054 109.454 126.108 109.118 126.144C109.118 126.144 109.118 126.144 109.076 126.144C108.228 126.334 107.344 126.288 106.521 126.009C105.697 125.731 104.967 125.232 104.408 124.566C104.395 124.547 104.389 124.523 104.391 124.5C104.393 124.477 104.403 124.455 104.419 124.438C104.435 124.421 104.456 124.411 104.479 124.408C104.503 124.405 104.526 124.41 104.546 124.422C105.854 125.237 107.39 125.607 108.926 125.478C108.98 125.202 108.152 121.908 108.326 121.878C109.103 121.916 109.872 122.058 110.612 122.298C109.946 117.9 108.584 113.646 107.99 109.26C107.989 109.229 107.998 109.199 108.017 109.174C108.035 109.149 108.061 109.131 108.091 109.123C108.12 109.115 108.152 109.117 108.181 109.128C108.209 109.14 108.233 109.161 108.248 109.188C109.988 113.544 110.864 118.584 111.668 123.108C111.758 123.684 109.7 123 109.268 122.868Z" fill="#263238"/>
<path d="M108.596 125.706C108.132 126.485 107.475 127.132 106.688 127.584C106.252 127.814 105.755 127.904 105.266 127.842C104.192 127.692 104.066 126.744 104.15 125.91C104.202 125.465 104.307 125.028 104.462 124.608C105.688 125.405 107.136 125.789 108.596 125.706Z" fill="#263238"/>
<path d="M106.7 127.584C106.264 127.814 105.767 127.904 105.278 127.842C104.204 127.692 104.078 126.744 104.162 125.91C105.272 125.892 106.466 126.51 106.7 127.584Z" fill="#FF9CBD"/>
<path d="M81.2959 120.246C84.7939 120.516 85.5919 113.19 85.5919 113.19C85.5919 113.19 92.6899 113.19 95.0359 102.99C95.0359 102.99 94.8799 107.742 91.8919 111.432C91.8919 111.432 104.408 110.106 109.682 99.63C109.682 99.63 107.576 104.964 105.608 106.866C105.608 106.866 110.858 105.396 113.408 101.136C113.408 101.136 115.604 107.184 117.29 108.852C117.29 108.852 116.774 86.952 96.4819 89.28C96.4819 89.28 83.7739 90.12 79.2139 100.182C74.6539 110.244 81.2959 120.246 81.2959 120.246Z" fill="#263238"/>
<path d="M85.004 121.254C85.004 121.254 80.282 114.906 77.384 116.604C74.486 118.302 78.17 127.608 81.662 128.796C82.0994 128.978 82.5691 129.07 83.0429 129.066C83.5168 129.062 83.9849 128.962 84.4192 128.773C84.8535 128.584 85.2451 128.308 85.5703 127.964C85.8956 127.619 86.1479 127.212 86.312 126.768L85.004 121.254Z" fill="#FFC4C0"/>
<path d="M78.4999 119.244C78.4872 119.244 78.475 119.249 78.466 119.258C78.457 119.267 78.4519 119.279 78.4519 119.292C78.4519 119.305 78.457 119.317 78.466 119.326C78.475 119.335 78.4872 119.34 78.4999 119.34C80.9539 120.246 82.2919 122.46 83.2519 124.74C82.5079 123.87 81.5119 123.402 80.3359 124.296C80.2759 124.344 80.3359 124.44 80.4079 124.422C80.8301 124.274 81.2878 124.261 81.7177 124.385C82.1476 124.509 82.5285 124.763 82.8079 125.112C83.2736 125.698 83.6758 126.331 84.0079 127.002C84.1279 127.212 84.5119 127.086 84.4219 126.84V126.786C84.3559 123.714 81.8299 119.46 78.4999 119.244Z" fill="#263238"/>
<path d="M83.582 127.8C83.5836 127.896 83.5661 127.99 83.5307 128.079C83.4952 128.168 83.4424 128.249 83.3754 128.317C83.3084 128.385 83.2285 128.439 83.1403 128.476C83.0522 128.513 82.9576 128.532 82.862 128.532C82.7667 128.532 82.6722 128.513 82.5842 128.477C82.4961 128.44 82.416 128.387 82.3486 128.319C82.2812 128.252 82.2277 128.172 82.1912 128.084C82.1548 127.996 82.136 127.901 82.136 127.806C82.136 127.711 82.1548 127.616 82.1912 127.528C82.2277 127.44 82.2812 127.36 82.3486 127.293C82.416 127.225 82.4961 127.172 82.5842 127.135C82.6722 127.099 82.7667 127.08 82.862 127.08C83.0529 127.08 83.2361 127.156 83.3711 127.291C83.5061 127.426 83.582 127.609 83.582 127.8Z" fill="white"/>
<path d="M81.5419 126.564C81.5431 126.656 81.5168 126.746 81.4665 126.823C81.4162 126.9 81.3441 126.96 81.2595 126.996C81.1748 127.031 81.0814 127.041 80.9913 127.023C80.9011 127.006 80.8182 126.962 80.7532 126.897C80.6883 126.832 80.6441 126.749 80.6265 126.659C80.6089 126.568 80.6185 126.475 80.6542 126.39C80.6899 126.306 80.7501 126.234 80.827 126.183C80.9039 126.133 80.994 126.107 81.0859 126.108C81.2068 126.108 81.3228 126.156 81.4083 126.242C81.4938 126.327 81.5419 126.443 81.5419 126.564Z" fill="white"/>
<path d="M78.698 112.278C78.452 112.116 56.018 81.228 54.098 78.378C53.24 77.112 60.098 57.378 71.456 51.978C79.652 48.048 94.55 51.282 97.298 52.494C100.568 53.946 113.072 93.798 113.072 93.798L93.536 101.862L78.698 112.278Z" fill="#6FA1D4"/>
<g opacity="0.1">
<path d="M80.102 106.446C79.6712 106.078 79.306 105.64 79.022 105.15C78.692 104.67 78.356 104.19 78.008 103.728C77.2982 102.801 76.52 101.929 75.68 101.118C75.0635 100.379 74.2196 99.8638 73.28 99.654C72.8655 99.609 72.4472 99.6906 72.08 99.888C71.8353 99.9955 71.6118 100.146 71.42 100.332C71.288 100.5 71.21 100.77 71.09 100.932C71.054 100.992 71.156 101.046 71.186 100.986C71.2741 100.695 71.4692 100.449 71.732 100.296C71.9451 100.185 72.1707 100.101 72.404 100.044C72.9056 99.941 73.4276 100.029 73.868 100.29C74.6845 100.828 75.4046 101.499 75.998 102.276C76.664 103.026 77.342 103.776 78.014 104.526C78.686 105.276 79.172 106.128 80.018 106.536C80.09 106.596 80.174 106.494 80.102 106.446Z" fill="black"/>
<path d="M82.418 106.2C81.026 104.252 79.626 102.308 78.218 100.368C76.7285 98.463 75.4622 96.3934 74.444 94.2C74.444 94.134 74.312 94.2 74.342 94.23C75.1829 96.507 76.2799 98.6809 77.612 100.71C79.029 102.698 80.6019 104.57 82.316 106.308C82.3303 106.322 82.3494 106.329 82.3691 106.328C82.3888 106.328 82.4074 106.319 82.421 106.305C82.4345 106.291 82.4418 106.272 82.4412 106.252C82.4406 106.232 82.4323 106.214 82.418 106.2Z" fill="black"/>
<path d="M88.232 100.2C86.984 98.568 85.574 97.062 84.182 95.556C82.9624 94.2274 81.5747 93.0636 80.054 92.094C79.994 92.058 79.94 92.148 79.994 92.19C81.482 93.27 82.586 94.77 83.81 96.126C85.142 97.608 86.486 99.126 87.956 100.464C87.9922 100.495 88.0385 100.511 88.086 100.51C88.1334 100.508 88.1787 100.489 88.213 100.456C88.2473 100.424 88.2682 100.379 88.2717 100.332C88.2753 100.284 88.2611 100.238 88.232 100.2Z" fill="black"/>
<path d="M93.074 81.372C92.7909 81.2498 92.4842 81.1917 92.176 81.2018C91.8677 81.2119 91.5655 81.29 91.291 81.4304C91.0164 81.5708 90.7762 81.7702 90.5877 82.0142C90.3991 82.2582 90.2667 82.5409 90.2 82.842C89.834 84.354 90.47 86.076 90.98 87.486C91.5429 89.016 92.2883 90.4725 93.2 91.824C94.239 93.3452 95.4759 94.7213 96.878 95.916C96.926 95.964 97.004 95.916 96.956 95.844C95.0061 93.712 93.4518 91.2495 92.366 88.572C91.8171 87.2624 91.3913 85.9045 91.094 84.516C90.848 83.358 91.094 81.324 92.732 81.516C94.286 81.72 95.072 83.514 96.23 84.366C96.23 84.366 96.284 84.366 96.23 84.324C95.084 83.436 94.508 81.966 93.074 81.372Z" fill="black"/>
<path d="M104.534 80.292C103.807 82.5818 103.869 85.049 104.708 87.3C105.147 88.5547 105.714 89.7611 106.4 90.9C107.045 92.1163 107.809 93.2658 108.68 94.332C108.689 94.3406 108.7 94.3461 108.712 94.3477C108.724 94.3492 108.736 94.3466 108.746 94.3404C108.757 94.3342 108.765 94.3246 108.769 94.3133C108.773 94.302 108.774 94.2896 108.77 94.278C108.266 93.078 107.492 92.016 106.97 90.84C106.419 89.6617 105.956 88.4444 105.584 87.198C105.278 86.0917 105.051 84.9648 104.906 83.826C104.759 82.6738 104.735 81.5093 104.834 80.352C104.834 80.196 104.588 80.124 104.534 80.292Z" fill="black"/>
<path d="M101.69 89.22C100.881 87.317 99.9361 85.4743 98.864 83.706C98.8411 83.6731 98.8068 83.6499 98.7678 83.6408C98.7288 83.6317 98.6877 83.6374 98.6527 83.6568C98.6176 83.6762 98.591 83.7079 98.5779 83.7458C98.5649 83.7837 98.5663 83.8251 98.582 83.862C99.476 85.704 100.256 87.6 101.036 89.49C101.816 91.38 102.458 93.306 103.346 95.118C103.376 95.178 103.454 95.118 103.448 95.076C103.118 93.056 102.527 91.0876 101.69 89.22Z" fill="black"/>
</g>
<path d="M112.7 89.4C111.386 88.938 95.4199 89.562 89.8579 93C84.9199 96.03 76.2559 104.55 74.0839 108.096C73.7239 108.696 77.6839 114.972 78.9679 115.512C79.7299 115.83 89.6059 107.076 95.1139 103.476C99.8119 100.404 111.914 99.276 114.98 99.108C115.448 99.06 113.48 89.664 112.7 89.4Z" fill="#6FA1D4"/>
<path opacity="0.2" d="M112.7 89.4C111.386 88.938 95.4199 89.562 89.8579 93C84.9199 96.03 76.2559 104.55 74.0839 108.096C73.7239 108.696 77.6839 114.972 78.9679 115.512C79.7299 115.83 89.6059 107.076 95.1139 103.476C99.8119 100.404 111.914 99.276 114.98 99.108C115.448 99.06 113.48 89.664 112.7 89.4Z" fill="black"/>
<path d="M100.514 158.094C100.514 158.094 99.6859 152.418 99.1999 151.938C98.7139 151.458 91.8739 148.194 88.6339 143.052C87.8179 141.756 84.6139 146.346 84.6139 146.346C84.6139 146.346 87.0139 152.904 92.5639 156.414C98.1139 159.924 104.756 159.198 106.16 158.214C106.616 157.902 105.05 148.416 104.888 148.842C104.481 149.974 103.825 150.999 102.968 151.842C102.722 152.094 103.706 157.656 103.706 157.656L100.514 158.094Z" fill="#6FA1D4"/>
<path d="M77.4439 149.94C65.8639 159.492 30.7399 198 32.9419 210.6C34.5799 219.954 44.8999 222.75 53.7919 218.814C61.5379 215.388 79.5559 174.024 84.4879 162.414C89.1799 151.338 88.8259 140.562 77.4439 149.94Z" fill="#FFC4C0"/>
<path d="M77.4439 149.94C65.8639 159.492 30.7399 198 32.9419 210.6C34.5799 219.954 44.8999 222.75 53.7919 218.814C61.5379 215.388 79.5559 174.024 84.4879 162.414C89.1799 151.338 88.8259 140.562 77.4439 149.94Z" fill="#6FA1D4"/>
<path d="M83.504 165.66C83.5111 165.643 83.5114 165.624 83.5046 165.608C83.4979 165.591 83.4847 165.577 83.468 165.57C83.4513 165.563 83.4324 165.563 83.4155 165.569C83.3987 165.576 83.3851 165.589 83.378 165.606C82.112 168.54 80.816 171.462 79.466 174.36C78.116 177.258 76.82 180.186 75.464 183.084C72.764 188.86 69.892 194.55 66.848 200.154C65.996 201.726 65.12 203.28 64.25 204.84C63.38 206.4 62.45 207.96 61.61 209.556C61.61 209.604 61.652 209.646 61.682 209.604C62.624 208.308 63.482 206.934 64.322 205.578C65.162 204.222 65.99 202.878 66.794 201.504C68.402 198.762 69.986 195.996 71.48 193.188C72.974 190.38 74.48 187.47 75.854 184.566C76.988 182.214 78.098 179.832 79.112 177.42C79.34 177.096 79.568 176.766 79.79 176.43C80.234 175.752 80.666 175.062 81.098 174.372C81.95 173.022 82.7 171.618 83.498 170.25C83.546 170.166 83.402 170.07 83.348 170.16C82.49 171.504 81.548 172.806 80.75 174.174L79.724 175.89C81.104 172.506 82.346 169.092 83.504 165.66Z" fill="#263238"/>
<path d="M35.6959 215.964C28.0639 207.714 38.0959 198.912 45.9319 198.666C64.3459 198.096 91.0999 203.04 105.854 208.194C110.912 209.958 112.142 238.968 106.412 238.794C96.2479 238.53 51.1819 232.698 35.6959 215.964Z" fill="#FFC4C0"/>
<path d="M98.6119 206.124C98.6119 206.124 100.544 206.4 110.99 206.172C118.19 206.016 135.896 210.252 143.702 228.972C146.702 236.172 142.964 241.386 138.53 234.48C135.41 229.614 133.664 225.972 132.2 224.67C132.2 224.67 131.3 233.472 126.842 236.004C122.943 238.222 118.891 240.159 114.716 241.8C114.243 241.103 113.814 240.378 113.432 239.628C111.58 240.471 109.527 240.774 107.51 240.501C105.493 240.228 103.594 239.391 102.032 238.086L98.6119 206.124Z" fill="#FFC4C0"/>
<path d="M117.902 207.126C120.806 209.526 126.902 214.8 130.352 220.818C134.21 227.508 139.838 241.428 134.87 244.218C131.234 246.27 128.618 241.14 128.618 241.14C128.618 241.14 129.728 247.386 126.038 248.52C122.666 249.552 120.884 245.466 120.884 245.466C120.884 245.466 120.884 249.366 117.47 249.738C113.342 250.182 113.966 241.938 109.394 238.764C108.368 238.062 117.902 207.126 117.902 207.126Z" fill="#FFC4C0"/>
<path d="M122.606 223.716C124.964 226.446 128.726 234.024 128.702 241.008C128.702 241.17 128.576 241.254 128.546 241.11C127.257 235.102 125.242 229.273 122.546 223.752C122.522 223.716 122.582 223.686 122.606 223.716Z" fill="#263238"/>
<path d="M115.97 227.808C117.77 230.37 121.292 238.356 121.022 245.436C121.022 245.592 120.89 245.67 120.866 245.52C119.887 239.457 118.222 233.525 115.904 227.838C115.886 227.802 115.946 227.772 115.97 227.808Z" fill="#263238"/>
<path d="M96.6259 202.122L91.0699 221.922L90.2359 240.6C90.2359 240.6 31.4359 225.846 32.8699 209.55C33.3619 204.054 38.6059 196.734 50.8699 196.314C63.1339 195.894 96.6259 202.122 96.6259 202.122Z" fill="#6FA1D4"/>
<path d="M96.788 202.596C95.516 202.236 94.268 201.822 92.984 201.492C91.7 201.162 90.482 200.856 89.222 200.568C86.69 199.968 84.116 199.512 81.554 199.086C76.4831 198.238 71.3725 197.648 66.242 197.316C64.364 196.716 62.42 196.29 60.512 195.774C60.458 195.774 60.446 195.846 60.512 195.864C62.072 196.308 63.62 196.83 65.186 197.256C63.986 197.184 62.786 197.118 61.622 197.076C60.182 197.016 58.736 197.076 57.296 197.076C57.248 197.076 57.242 197.166 57.296 197.166C58.574 197.232 59.858 197.388 61.13 197.508C62.402 197.628 63.746 197.724 65.048 197.85C67.64 198.102 70.226 198.384 72.8 198.72C77.936 199.398 83.072 200.178 88.148 201.198C89.57 201.486 90.998 201.738 92.42 202.026C93.842 202.314 95.318 202.56 96.752 202.878C96.908 202.884 96.944 202.638 96.788 202.596Z" fill="#263238"/>
<path d="M88.754 240.132C86.3 239.412 83.876 238.602 81.428 237.858C78.98 237.114 76.502 236.334 74.066 235.5C69.164 233.832 64.34 231.966 59.492 230.148C56.684 229.092 53.84 228.144 51.032 227.094C50.96 227.064 50.906 227.172 50.984 227.202C52.184 227.718 53.438 228.27 54.662 228.81C55.886 229.35 57.062 229.83 58.262 230.352C60.662 231.402 63.134 232.38 65.582 233.352C70.3995 235.275 75.3118 236.951 80.3 238.374C83.084 239.166 85.898 239.76 88.73 240.324C88.844 240.348 88.868 240.162 88.754 240.132Z" fill="#263238"/>
<path d="M99.638 202.2C99.542 201.996 88.982 200.508 88.982 200.508C88.982 200.508 80.582 218.868 80.702 221.01C80.822 223.152 81.536 239.514 81.704 239.706C81.872 239.898 94.628 242.892 94.868 242.502C95.108 242.112 94.952 224.472 94.922 223.116C94.892 221.76 99.638 202.2 99.638 202.2Z" fill="#6FA1D4"/>
<path opacity="0.2" d="M99.5779 202.2C99.4819 201.996 88.9159 200.544 88.9159 200.544C88.9159 200.544 80.5579 218.928 80.7019 221.076C80.8459 223.224 81.5899 239.574 81.7579 239.766C81.9259 239.958 94.6939 242.91 94.9579 242.52C95.2219 242.13 94.9879 224.49 94.9579 223.134C94.9279 221.778 99.5779 202.2 99.5779 202.2Z" fill="black"/>
<path d="M269.342 230.958V256.596C269.342 258.396 268.658 259.926 267.824 259.926H257.96H248.084C247.25 259.926 246.578 258.444 246.578 256.614V230.958C246.578 229.128 247.25 227.646 248.084 227.646H248.996V225.246H257.96H266.912V227.646H267.824C268.658 227.646 269.342 229.128 269.342 230.958Z" fill="#6FA1D4"/>
<path d="M267.536 221.304H248.354V225.618H267.536V221.304Z" fill="#37474F"/>
<path d="M269.342 236.394H246.578V252.588H269.342V236.394Z" fill="#EBEBEB"/>
<path d="M244.046 255.408C244.046 258.768 242.786 259.926 242.144 259.926H236.498H231.2C230.558 259.926 229.292 258.774 229.286 255.408C229.286 251.424 232.136 249.036 232.136 246.852C232.136 245.436 230.762 241.026 231.35 241.026H241.94C242.54 241.026 241.172 245.43 241.172 246.852C241.178 249.042 244.04 251.4 244.046 255.408Z" fill="#C7C7C7"/>
<path d="M232.162 238.098L241.084 238.086C241.426 238.085 241.755 238.221 241.997 238.462C242.239 238.704 242.375 239.032 242.376 239.374L242.38 241.996C242.38 242.02 242.37 242.043 242.353 242.06C242.337 242.077 242.314 242.086 242.29 242.086L230.968 242.102C230.944 242.102 230.921 242.093 230.904 242.076C230.887 242.059 230.878 242.036 230.878 242.012L230.874 239.39C230.874 239.048 231.009 238.72 231.251 238.477C231.492 238.235 231.82 238.099 232.162 238.098Z" fill="#37474F"/>
<path d="M67.6399 233.022L65.0779 230.958C67.0339 228.522 69.2779 225.408 69.6319 224.43C69.2479 221.964 66.9439 213.822 65.4799 212.688H55.8799V209.4H65.6479C70.3099 209.4 72.8899 224.082 72.9079 224.232C72.9979 224.802 73.1659 226.152 67.6399 233.022Z" fill="#EBEBEB"/>
<path d="M50.9719 254.796C34.3699 254.796 30.3559 243.996 31.9939 236.436C33.6319 228.876 45.2239 222.378 45.3619 219.906C45.4999 217.434 45.3619 206.334 44.7619 205.578C44.1619 204.822 40.3639 203.358 39.3619 203.358C38.3599 203.358 38.3299 202.086 39.3619 202.086H58.5019C59.5339 202.086 59.5339 203.358 58.5019 203.358C57.4699 203.358 56.8219 204.624 56.6419 205.962C56.5099 206.904 56.3239 217.848 56.5999 219.906C56.9299 222.354 68.3179 228.864 69.9679 236.436C71.6179 244.008 67.5679 254.796 50.9719 254.796Z" fill="#EBEBEB"/>
<path d="M50.5639 252.24C36.6019 252.24 33.2299 243.168 34.6039 236.808C35.9779 230.448 47.7199 223.326 47.4919 221.262C47.4499 220.86 47.4199 212.76 47.4019 211.914H54.3559C54.3559 212.796 54.4039 220.914 54.4519 221.262C54.7339 223.32 65.1259 230.436 66.5179 236.808C67.9099 243.18 64.5199 252.24 50.5639 252.24Z" fill="#6FA1D4"/>
<path d="M114.848 254.028C114.823 254.956 114.605 255.869 114.208 256.709C113.812 257.549 113.245 258.297 112.544 258.906C109.544 261.756 104.312 263.346 98.8219 263.07C95.1019 262.878 90.2959 261.27 85.6579 259.686C81.0199 258.102 76.4959 256.596 73.4419 256.626L37.3099 256.962V254.748H38.1559V256.116L73.4419 255.786C76.6399 255.756 81.1519 257.28 85.9339 258.894C90.5239 260.442 95.2639 262.044 98.8699 262.23C104.138 262.5 109.154 260.994 111.962 258.3C112.58 257.771 113.081 257.119 113.434 256.386C113.786 255.652 113.982 254.853 114.008 254.04L114.848 254.028Z" fill="#A6A6A6"/>
<path d="M114.5 252.072C114.739 252.697 114.865 253.359 114.872 254.028H114.026C113.98 253.219 113.768 252.429 113.403 251.706C113.037 250.984 112.526 250.344 111.902 249.828C109.046 247.194 104 245.778 98.738 246.15C95.138 246.396 90.422 248.088 85.862 249.75C81.116 251.454 76.634 253.062 73.43 253.086L38.15 253.416V254.784H37.292V252.576L73.418 252.24C76.472 252.24 80.894 250.626 85.574 248.946C90.254 247.266 94.958 245.58 98.672 245.346C104.162 244.962 109.472 246.462 112.472 249.252C113.355 250.024 114.049 250.989 114.5 252.072Z" fill="#A6A6A6"/>
<path d="M114.848 254.028C114.835 254.486 114.726 254.936 114.529 255.349C114.332 255.763 114.05 256.13 113.702 256.428C111.242 258.828 105.248 260.334 98.798 260.142C95.102 260.028 90.314 258.99 85.688 257.982C81.062 256.974 76.514 255.984 73.436 256.014L37.304 256.35V254.76H38.15V255.504L73.436 255.174C76.61 255.144 81.11 256.122 85.874 257.16C90.464 258.162 95.21 259.194 98.834 259.302C104.972 259.488 110.834 258.06 113.12 255.828C113.384 255.605 113.599 255.33 113.752 255.021C113.905 254.711 113.992 254.373 114.008 254.028H114.848Z" fill="#A6A6A6"/>
<path d="M114.674 253.098C114.788 253.395 114.847 253.71 114.848 254.028V254.448L37.292 255.174V253.158L73.424 252.822C76.502 252.792 80.936 251.742 85.634 250.632C90.242 249.534 95.012 248.406 98.708 248.232C105.152 247.92 111.17 249.294 113.678 251.664C114.113 252.062 114.453 252.552 114.674 253.098ZM113.948 253.614C113.788 253.094 113.487 252.628 113.078 252.27C110.762 250.086 104.864 248.772 98.732 249.072C95.132 249.246 90.386 250.368 85.808 251.472C81.068 252.594 76.592 253.656 73.412 253.686L38.132 254.016V254.334L113.948 253.614Z" fill="#A6A6A6"/>
<path d="M35.678 258.396L64.202 258.132L64.13 250.866L35.444 251.136L35.678 258.396Z" fill="#37474F"/>
</svg>
